<svg xmlns="http://www.w3.org/2000/svg" xmlns:xlink="http://www.w3.org/1999/xlink" id="b" data-name="Layer 2" viewBox="0 0 1298.29 196.39"><defs><linearGradient id="d" x1="49.01" y1="98.2" x2="153.01" y2="98.2" gradientUnits="userSpaceOnUse"><stop offset="0" stop-color="#19c9cc"></stop><stop offset="1" stop-color="#357ced"></stop></linearGradient><linearGradient id="e" x1="10.01" x2="196.46" xlink:href="#d"></linearGradient></defs><g id="c" data-name="Layer 1"><g><path d="m337.88,56.67c-.14.07-.31.03-.39-.11-5.79-9.38-21.3-18.22-39.13-18.22-23.18,0-34.3,9.7-34.3,22,0,14.43,17.03,18.45,36.9,20.82,34.54,4.26,66.71,13.25,66.71,52.75,0,36.9-32.65,52.75-69.55,52.75-33.83,0-59.85-10.41-72.15-40.69l26.02-13.48c7.33,18.22,26.5,26.26,46.6,26.26s38.09-6.86,38.09-24.84c0-15.61-16.32-22-38.32-24.37-33.83-4.02-65.06-13.01-65.06-50.15,0-34.07,33.59-48.02,64.11-48.26,25.79,0,52.52,7.33,65.06,32.88l-24.59,12.65Z" fill="#fff"></path><path d="m469.87,133.68h-46.84v31.92s-31.23,16.82-31.23,16.82V16.82c26.02,0,52.04-.24,78.07-.24,80.91,0,81.14,117.1,0,117.1Zm-46.84-28.63h46.84c39.98,0,39.74-58.67,0-58.67h-46.84v58.67Z" fill="#fff"></path><path d="m675.21,182.41h-123.96V16.82h123.96v30.28h-92.97v38.09h89.66v29.1h-89.66s0,37.38,0,37.38h92.97v30.75Z" fill="#fff"></path><path d="m845.3,161.6c-17.03,16.8-39.03,24.6-62.93,24.6-61.51,0-87.53-42.35-87.77-85.4-.24-43.29,27.91-87.29,87.77-87.29,22.47,0,43.76,8.52,60.8,25.31l-20.82,20.11c-10.88-10.64-25.55-15.61-39.98-15.61-39.98,0-57.25,29.81-57.01,57.49.24,27.44,16.09,56.07,57.01,56.07,14.43,0,30.75-5.91,41.64-16.8l21.29,21.53Z" fill="#fff"></path><path d="m1140.46,35.88c-16-15.99-36.61-24.52-57.55-25.66-.17,0-.33-.02-.5-.03-.94-.05-1.89-.07-2.83-.09-.57-.01-1.14-.02-1.7-.02-.54,0-1.08.01-1.63.02-.97.02-1.94.05-2.91.1-.14,0-.28.02-.42.02-20.95,1.15-41.57,9.72-57.57,25.73-34.45,34.49-34.41,90.38.07,124.83,16,15.99,36.61,24.52,57.55,25.66.17,0,.33.02.5.03.94.05,1.89.07,2.83.09.57.01,1.14.02,1.7.02.54,0,1.08-.01,1.63-.02.97-.02,1.94-.05,2.91-.1.14,0,.28-.02.42-.03,20.95-1.15,41.57-9.72,57.57-25.73,34.45-34.49,34.41-90.38-.07-124.83Zm-25.68,99.17c-9.41,9.43-21.55,14.47-33.88,15.15-.08,0-.16.01-.25.01-.57.03-1.14.05-1.71.06-.32,0-.64.01-.96.01-.33,0-.67,0-1-.01-.56,0-1.11-.03-1.67-.05-.1,0-.2-.01-.29-.02-12.32-.67-24.45-5.7-33.87-15.11-20.3-20.28-20.32-53.17-.04-73.47,9.41-9.43,21.55-14.47,33.88-15.15.08,0,.17-.01.25-.01.57-.03,1.14-.05,1.71-.06.32,0,.64-.01.96-.01.33,0,.67,0,1,.01.56,0,1.11.03,1.67.05.1,0,.2.01.29.02,12.32.67,24.45,5.7,33.87,15.1,20.3,20.28,20.32,53.17.04,73.47Z" fill="#fff"></path><g><path d="m1238.25,170.67c-4.45,3.15-10.09,4.96-15.47,4.96-10.37,0-16.29-4.35-19.43-8-3.76-4.38-5.86-10.4-5.92-16.96-.06-7.17,2.54-13.94,7.15-18.58,4.53-4.57,10.83-6.98,18.21-6.98,5.5,0,10.64,1.58,14.87,4.56l.72.5,3.94-3.8-.98-.75c-5.38-4.1-11.79-6.27-18.54-6.27-9.29,0-17.15,2.96-22.72,8.56-5.61,5.64-8.8,13.92-8.75,22.71.08,14.1,8.37,30.56,31.48,30.56,7.35,0,14.06-2.1,19.42-6.07l.98-.73-4.2-4.25-.73.52Z" fill="#fff"></path><path d="m1242.21,175.13c-5.36,3.97-12.08,6.07-19.42,6.07-23.11,0-31.4-16.46-31.48-30.56-.05-8.79,3.14-17.07,8.75-22.71,5.57-5.6,13.43-8.56,22.72-8.56,6.75,0,13.16,2.17,18.54,6.27l.98.75-3.94,3.8-.72-.5c-4.23-2.98-9.38-4.56-14.87-4.56-7.38,0-13.68,2.41-18.21,6.98-4.6,4.64-7.21,11.42-7.15,18.58.06,6.56,2.16,12.58,5.92,16.96,3.14,3.65,9.06,8,19.43,8,5.38,0,11.01-1.81,15.47-4.96l.73-.52,4.2,4.25-.98.73Z" fill="#fff"></path><path d="m1293.35,170.67c-4.45,3.15-10.09,4.96-15.47,4.96-10.37,0-16.29-4.35-19.43-8-3.76-4.37-5.86-10.4-5.92-16.96-.06-7.17,2.54-13.94,7.15-18.58,4.53-4.57,10.83-6.98,18.21-6.98,5.5,0,10.64,1.58,14.87,4.56l.72.5,3.94-3.8-.98-.75c-5.38-4.1-11.79-6.27-18.54-6.27-9.29,0-17.15,2.96-22.72,8.56-5.61,5.64-8.8,13.92-8.75,22.71.08,14.1,8.37,30.56,31.48,30.56,7.35,0,14.06-2.1,19.42-6.07l.98-.73-4.2-4.25-.73.52Z" fill="#fff"></path><path d="m1297.31,175.13c-5.36,3.97-12.08,6.07-19.42,6.07-23.11,0-31.4-16.46-31.48-30.56-.05-8.79,3.14-17.07,8.75-22.71,5.57-5.6,13.43-8.56,22.72-8.56,6.75,0,13.17,2.17,18.54,6.27l.98.75-3.94,3.8-.72-.5c-4.23-2.98-9.38-4.56-14.87-4.56-7.38,0-13.68,2.41-18.21,6.98-4.6,4.64-7.21,11.42-7.15,18.58.06,6.56,2.16,12.58,5.92,16.96,3.14,3.65,9.06,8,19.43,8,5.38,0,11.01-1.81,15.47-4.96l.73-.52,4.2,4.25-.98.73Z" fill="#fff"></path><path d="m1184.8,173.71c-1.55,0-2.8,1.26-2.8,2.8s1.26,2.81,2.8,2.81,2.8-1.26,2.8-2.81-1.26-2.8-2.8-2.8Z" fill="#fff"></path><path d="m1184.8,179.32c-1.55,0-2.8-1.26-2.8-2.81s1.26-2.8,2.8-2.8,2.8,1.26,2.8,2.8-1.26,2.81-2.8,2.81Z" fill="#fff"></path></g><g><circle cx="98.2" cy="98.2" r="54.77" fill="url(#d)"></circle><circle cx="98.2" cy="98.2" r="98.2" fill="url(#e)" opacity=".48"></circle></g><polygon points="922.15 45.22 934.49 45.22 934.49 45.21 987 45.21 987 16.82 850.74 16.82 850.74 45.21 903.26 45.21 903.26 182.41 934.49 182.41 934.49 66.59 922.15 45.22" fill="#fff"></polygon></g></g></svg>